<svg width="current" height="current" viewBox="0 0 24 24" fill="none" xmlns="http://www.w3.org/2000/svg">
    <path fill-rule="evenodd" clip-rule="evenodd" d="M1.22376 4C0.601546 5.67545 0.963674 7.63351 2.31015 8.97999L4 10.6698V12H0V5C0 4.44772 0.447715 4 1 4H1.22376ZM10.6699 4L12.0517 5.3818L13.4335 4H10.6699ZM12.0517 18.7215L10.7732 20H13.3302L12.0517 18.7215ZM22.9165 20C23.4865 18.3479 23.1121 16.4422 21.7932 15.1233L20 13.3301V12H24V19C24 19.5523 23.5523 20 23 20H22.9165ZM0.593217 17.589L1.08603 17.2476C0.965082 17.7047 0.913908 18.1765 0.932504 18.646L0.593217 18.411C0.306213 18.2121 0.306214 17.7878 0.593217 17.589ZM23.1694 5.42453C23.1884 5.83336 23.1545 6.24419 23.0677 6.64588L23.4068 6.41098C23.6938 6.21214 23.6938 5.78782 23.4068 5.58898L23.1694 5.42453Z" fill="current"/>
    <rect x="19.1323" y="1.25125" width="5.32328" height="25.2875" rx="2.66164" transform="rotate(45 19.1323 1.25125)" fill="current"/>
    <rect x="1.25128" y="5.01538" width="5.32328" height="25.2875" rx="2.66164" transform="rotate(-45 1.25128 5.01538)" fill="current"/>
</svg>
