<svg width="current" height="current" viewBox="0 0 24 24" fill="none" xmlns="http://www.w3.org/2000/svg">
    <path fill-rule="evenodd" clip-rule="evenodd" d="M23.4068 5.58899C23.6938 5.78783 23.6938 6.21215 23.4068 6.41099L21.5318 7.71002C20.2512 6.06107 18.2495 5 16 5C14.5128 5 13.1338 5.46381 12 6.25469C10.8662 5.46382 9.48725 5 8 5C4.13401 5 1.00001 8.134 1 12H0V4.99998C0 4.4477 0.447715 3.99998 1 3.99998H16.5V1.75852C16.5 1.35511 16.9531 1.11779 17.2847 1.34753L23.4068 5.58899ZM12 17.7453C10.8662 18.5362 9.48725 19 8 19C5.7505 19 3.74884 17.9389 2.4682 16.29L0.593217 17.589C0.306214 17.7878 0.306213 18.2121 0.593217 18.411L6.71525 22.6525C7.04685 22.8822 7.49999 22.6449 7.49999 22.2415V20H23C23.5523 20 24 19.5523 24 19V12H23C23 12 23 12 23 12C23 15.866 19.866 19 16 19C14.5128 19 13.1338 18.5362 12 17.7453Z" fill="current"/>
    <path fill-rule="evenodd" clip-rule="evenodd" d="M12 15.0005C11.0878 16.2147 9.6356 17 8 17C5.23858 17 3 14.7614 3 12C3 9.23858 5.23858 7 8 7C9.6356 7 11.0878 7.78534 12 8.99952C12.9122 7.78534 14.3644 7 16 7C18.7614 7 21 9.23858 21 12C21 14.7614 18.7614 17 16 17C14.3644 17 12.9122 16.2147 12 15.0005ZM10 12C10 13.1046 9.10457 14 8 14C6.89543 14 6 13.1046 6 12C6 10.8954 6.89543 10 8 10C9.10457 10 10 10.8954 10 12ZM18 12C18 13.1046 17.1046 14 16 14C14.8954 14 14 13.1046 14 12C14 10.8954 14.8954 10 16 10C17.1046 10 18 10.8954 18 12Z" fill="current"/>
</svg>
