<svg width="current" height="current" viewBox="0 0 24 24" fill="none" xmlns="http://www.w3.org/2000/svg">
    <path fill-rule="evenodd" clip-rule="evenodd" stroke-width="0" d="M23.4068 5.58899C23.6938 5.78783 23.6938 6.21215 23.4068 6.41099L17.2847 10.6525C16.9531 10.8822 16.5 10.6449 16.5 10.2415V7.99998H4V12H0V4.99998C0 4.4477 0.447715 3.99998 1 3.99998H16.5V1.75852C16.5 1.35511 16.9531 1.11779 17.2847 1.34753L23.4068 5.58899ZM20 12V16H7.49999V13.7585C7.49999 13.3551 7.04685 13.1178 6.71524 13.3475L0.593217 17.589C0.306214 17.7878 0.306213 18.2121 0.593217 18.411L6.71525 22.6525C7.04685 22.8822 7.49999 22.6449 7.49999 22.2415V20H23C23.5523 20 24 19.5523 24 19V12H20Z" fill="current"/>
</svg>
